<?xml version="1.0" encoding="UTF-8" standalone="no"?>
<svg
   xmlns:dc="http://purl.org/dc/elements/1.1/"
   xmlns:cc="http://creativecommons.org/ns#"
   xmlns:rdf="http://www.w3.org/1999/02/22-rdf-syntax-ns#"
   xmlns:svg="http://www.w3.org/2000/svg"
   xmlns="http://www.w3.org/2000/svg"
   xmlns:xlink="http://www.w3.org/1999/xlink"
   id="svg871"
   version="1.1"
   viewBox="0 0 210 297"
   height="297mm"
   width="210mm">
  <title
     id="title1458">logo</title>
  <defs
     id="defs865">
    <linearGradient
       id="linearGradient1452">
      <stop
         id="stop1448"
         offset="0"
         style="stop-color:#0e211c;stop-opacity:1;" />
      <stop
         id="stop1450"
         offset="1"
         style="stop-color:#0e211c;stop-opacity:0;" />
    </linearGradient>
    <radialGradient
       gradientUnits="userSpaceOnUse"
       gradientTransform="matrix(1,0,0,0.48017776,-3.0238095,23.437973)"
       r="101.79762"
       fy="59.630955"
       fx="105.83334"
       cy="59.630955"
       cx="105.83334"
       id="radialGradient1456"
       xlink:href="#linearGradient1452" />
    <filter
       id="filter1467"
       style="color-interpolation-filters:sRGB;">
      <feConvolveMatrix
         id="feConvolveMatrix1463"
         result="result1"
         order="3 3"
         kernelMatrix="0 -0.3 0 -0.3 2.2 -0.3 0 -0.3 0"
         divisor="1"
         in="SourceGraphic"
         targetX="1"
         targetY="1" />
      <feBlend
         id="feBlend1465"
         result="result2"
         mode="normal"
         in2="SourceGraphic" />
    </filter>
    <radialGradient
       r="101.79762"
       fy="59.630955"
       fx="105.83334"
       cy="59.630955"
       cx="105.83334"
       gradientTransform="matrix(1,0,0,0.48017776,-9.0714285,24.949877)"
       gradientUnits="userSpaceOnUse"
       id="radialGradient5172"
       xlink:href="#linearGradient1452" />
    <radialGradient
       r="101.79762"
       fy="59.630955"
       fx="105.83334"
       cy="59.630955"
       cx="105.83334"
       gradientTransform="matrix(1,0,0,0.48017776,-9.0714285,24.949877)"
       gradientUnits="userSpaceOnUse"
       id="radialGradient5182"
       xlink:href="#linearGradient1452" />
  </defs>
  <metadata
     id="metadata868">
    <rdf:RDF>
      <cc:Work
         rdf:about="">
        <dc:format>image/svg+xml</dc:format>
        <dc:type
           rdf:resource="http://purl.org/dc/dcmitype/StillImage" />
        <dc:title>logo</dc:title>
      </cc:Work>
    </rdf:RDF>
  </metadata>
  <g
     id="layer1">
    <g
       transform="translate(1.5119048,120.95238)"
       style="filter:url(#filter1467)"
       id="g1461">
      <rect
         style="opacity:0.52899996;fill:url(#radialGradient5182);fill-opacity:1;fill-rule:evenodd;stroke:#000000;stroke-width:1;stroke-miterlimit:4;stroke-dasharray:none;stroke-opacity:0"
         id="rect1446"
         width="202.59525"
         height="96.761909"
         x="-4.5357146"
         y="5.2023787" />
    </g>
    <path
       d="m 42.041093,161.85717 c -0.06006,2.15406 -0.07044,4.29759 -0.277003,6.44455 -0.768268,3.74561 -1.680869,7.45518 -2.301275,11.23047 -0.268173,1.96103 -0.588332,3.9311 -1.173567,5.82546 -0.392306,1.2411 -0.648031,2.51155 -1.034822,3.75455 -0.304266,1.08614 -0.477475,2.21701 -0.452128,3.34652 0.01812,0.0408 0.09481,0.10351 0.05436,0.12237 -7.750186,3.61187 -11.916253,7.86152 -9.387324,2.27274 0.556355,-1.25086 0.610846,-2.62994 0.931016,-3.94373 0.285072,-1.17902 0.692097,-2.34548 1.27786,-3.40941 0.699731,-0.91865 1.564468,-1.67808 2.470105,-2.38615 3.546454,-2.54289 6.852153,-4.17542 11.122589,-6.57148 0.547338,-0.3071 1.272524,-0.29006 1.857023,-0.55867 1.237797,-0.50519 2.580224,-0.58018 3.899156,-0.64551 1.49056,-0.0513 2.982363,-0.0421 4.473559,-0.0394 1.51401,0.004 3.028022,0.007 4.542036,0.008 1.616287,-0.12599 0.75751,-0.06 2.576391,-0.19712 0,0 -8.809172,6.5145 -8.809172,6.5145 v 0 c -1.928016,0.18004 -1.000289,0.1046 -2.782774,0.23127 -1.513843,-0.002 -3.02768,-0.006 -4.541523,-0.006 -1.478224,0.003 -2.958943,-0.001 -4.433535,0.11648 -1.285282,0.13615 -2.538635,0.38498 -3.730829,0.90442 -0.45702,0.13015 -0.766233,0.20124 -1.203552,0.39461 -0.189913,0.084 -0.731957,0.39217 -0.552911,0.28699 16.637209,-9.77318 10.862009,-6.87672 7.992364,-4.50228 -0.978511,0.52844 -1.823505,1.26318 -2.572435,2.06771 -0.888275,0.67818 -1.168432,1.95631 -1.502079,2.97907 -0.38422,1.34752 -0.501383,2.71918 -0.869416,4.07324 -1.720336,4.71675 -4.778369,3.93888 -10.964489,7.31433 -0.02392,0.013 0.05406,0.007 0.08108,0.0106 0.200613,-1.18737 0.12106,-2.41217 0.425619,-3.58631 0.335902,-1.27996 0.784895,-2.51033 1.044321,-3.8129 0.671722,-1.86842 1.122686,-3.80679 1.43523,-5.76986 0.698699,-3.7184 1.671548,-7.38227 2.253782,-11.12019 0.232407,-2.08062 0.304493,-4.16173 0.15349,-6.25355 0,0 9.998853,-5.09468 9.998853,-5.09468 z"
       id="path5184"
       style="opacity:0.52899996;fill:#af4949;fill-opacity:1;fill-rule:evenodd;stroke:#000000;stroke-width:1;stroke-miterlimit:4;stroke-dasharray:none;stroke-opacity:0" />
    <path
       d="m 66.116014,164.3842 c -0.965219,2.21948 -1.454346,4.5952 -2.074045,6.9237 -0.438182,1.87515 -1.042112,3.69744 -1.360136,5.59889 -0.210505,1.83048 -0.578977,3.63593 -0.804137,5.46436 -0.173511,1.53738 -0.200893,3.08535 -0.218112,4.63073 0.07725,1.37208 -0.293243,2.69891 -0.505598,4.04132 -0.26912,1.23958 -0.648165,2.43827 -0.828897,3.69802 -0.140599,1.19106 -0.157848,2.39158 -0.175366,3.58931 0,0 -9.935725,5.04937 -9.935725,5.04937 v 0 c 0.0079,-1.22976 0.01445,-2.46086 0.106346,-3.68789 0.119108,-1.27093 0.305052,-2.53464 0.81629,-3.71648 0.156707,-1.32048 0.561697,-2.60019 0.590502,-3.92428 0.01146,-1.58412 0.02838,-3.17077 0.185016,-4.74861 0.2077,-1.84666 0.624906,-3.65798 0.798467,-5.50559 0.278043,-1.96824 0.849564,-3.82751 1.359694,-5.73984 0.649174,-2.30341 1.176811,-4.63917 1.916258,-6.91584 0,0 10.129443,-4.75717 10.129443,-4.75717 z"
       id="path5186"
       style="opacity:0.52899996;fill:#af4949;fill-opacity:1;fill-rule:evenodd;stroke:#000000;stroke-width:1;stroke-miterlimit:4;stroke-dasharray:none;stroke-opacity:0" />
    <path
       d="m 92.689904,166.39288 c -0.07138,1.84787 -0.06879,3.69838 -0.064,5.54747 -0.01455,1.93936 0.0054,3.87877 0.01646,5.81811 0.0087,1.56916 0.01087,3.13834 0.01209,4.70752 -0.01468,1.30142 -0.389003,2.52958 -0.857837,3.72765 -0.481071,1.22559 -0.51276,2.54675 -0.663916,3.83672 -0.308698,1.27765 -0.529741,2.56401 -0.644271,3.87306 0.03431,1.44646 -0.287692,2.84029 -0.527953,4.25409 -0.200564,1.29233 -0.25918,2.59961 -0.302786,3.90473 0,0 -9.936665,5.02628 -9.936665,5.02628 v 0 c 0.03415,-1.34285 0.08136,-2.68699 0.241403,-4.02192 0.181081,-1.40116 0.600459,-2.74825 0.550045,-4.16993 0.0761,-1.34055 0.189232,-2.6857 0.574789,-3.97917 0.34993,-1.29767 0.14293,-2.69595 0.574516,-3.98958 0.369432,-1.14054 0.944221,-2.18319 1.064731,-3.40339 0.0013,-1.57329 0.0034,-3.14658 0.01209,-4.71984 0.01095,-1.94493 0.03096,-3.88993 0.01646,-5.83488 0.0047,-1.82733 0.0084,-3.65619 -0.064,-5.48225 0,0 9.998855,-5.09467 9.998855,-5.09467 z"
       id="path5188"
       style="opacity:0.52899996;fill:#af4949;fill-opacity:1;fill-rule:evenodd;stroke:#000000;stroke-width:1;stroke-miterlimit:4;stroke-dasharray:none;stroke-opacity:0" />
    <path
       d="m 96.394838,168.03517 c 1.651296,-0.62844 3.400909,-0.92996 5.147892,-1.14021 1.76652,-0.1773 3.54499,-0.16205 5.31837,-0.17169 1.82,-0.0813 3.20217,-0.10667 4.7922,0.8687 1.36686,1.35649 1.87449,3.27971 2.34127,5.09602 0.42425,1.87795 0.49968,3.81202 0.56098,5.72969 0.11603,1.69519 -0.19221,3.31788 -0.95302,4.8296 -0.6674,1.25827 -1.63251,2.24099 -2.80085,3.03289 -7.00232,4.26103 -9.34353,6.11148 -16.032281,7.05544 -2.218925,0.31079 -4.459496,0.31006 -6.694554,0.33492 -1.636111,0.0366 -3.274329,-0.0248 -4.909565,0.0481 -10.489912,-7.09657 9.696688,-6.58591 12.111095,-6.57483 1.678932,0.003 3.357867,-0.002 5.036795,-0.005 1.61105,-0.0302 3.15903,-0.11944 4.69048,0.43109 1.49218,0.73617 2.99587,1.46729 3.97542,2.84664 0.95727,1.17346 1.36258,2.625 1.82193,4.03719 0.65371,1.24144 1.07182,2.54552 1.30746,3.92375 0.27442,1.4079 0.17701,2.65482 -0.49283,3.91574 -0.9218,1.20903 -2.20894,2.04163 -3.49609,2.81276 -4.78633,2.80683 -9.188187,6.04809 -14.507235,7.50478 -2.090907,0.56649 -4.181586,1.03488 -6.335366,1.27813 -2.00714,0.16186 -4.021122,0.19597 -6.033728,0.21161 -1.740175,-0.0396 -3.494341,0.11459 -5.218594,-0.14692 -1.569577,-0.38466 -3.22104,-0.30292 -4.777483,-0.70786 -0.218339,-0.059 -0.436679,-0.11793 -0.655018,-0.1769 0,0 9.194892,-6.33936 9.194892,-6.33936 v 0 c 0.207354,0.0484 0.414708,0.0969 0.622065,0.14529 1.553789,0.2371 3.121205,0.39033 4.673467,0.64247 1.713529,0.0957 3.430511,0.0288 5.146014,0.0445 1.974207,-0.0149 3.954081,-0.0405 5.915295,-0.29118 2.1131,-0.3098 4.179251,-0.83416 6.227841,-1.43494 4.22442,-1.46378 12.14821,-6.17902 -4.62989,3.27579 1.232696,-0.74566 2.52451,-1.40195 3.58014,-2.40256 0.99168,-0.83966 1.14891,-1.85687 0.92327,-3.11118 -0.18785,-1.33368 -0.58025,-2.5794 -1.2118,-3.77527 -0.41868,-1.29799 -0.77451,-2.64107 -1.649424,-3.72078 -0.879162,-1.12173 -2.261253,-1.74273 -3.56671,-2.23874 -1.486133,-0.29595 -3.002928,-0.14561 -4.510707,-0.1804 -1.674442,-0.003 -3.348889,-0.008 -5.023331,-0.004 -0.796438,0.004 -1.592384,0.009 -2.388521,0.033 -0.16007,0.005 -0.606954,0.11521 -0.480107,0.0175 8.740018,-6.73519 11.994086,-4.44343 8.849984,-6.613 1.578367,0.10257 3.16407,0.0247 4.744297,0.047 2.197965,-0.0301 4.401709,-0.10412 6.576149,-0.45348 5.21155,-0.97626 12.65224,-4.77707 -3.17024,3.57526 1.21136,-0.62515 2.20468,-1.36218 3.0135,-2.47435 0.8884,-1.52322 1.33515,-2.48133 1.24003,-4.3262 -0.0249,-1.84586 -0.06,-3.7046 -0.43406,-5.51955 -0.35545,-1.48513 -0.72005,-3.23189 -1.91128,-4.26825 -1.41304,-0.61828 -2.934469,-0.42433 -4.445808,-0.43567 -1.746375,0.0158 -3.497935,0.0412 -5.230143,0.28874 -1.768195,0.28388 -3.480552,0.75683 -5.197155,1.25865 0,0 8.944954,-6.77262 8.944954,-6.77262 z"
       id="path5190"
       style="opacity:0.52899996;fill:#af4949;fill-opacity:1;fill-rule:evenodd;stroke:#000000;stroke-width:1;stroke-miterlimit:4;stroke-dasharray:none;stroke-opacity:0" />
    <path
       d="m 160.56206,159.69091 c -1.88572,-0.0445 -3.77263,-0.0502 -5.65889,-0.0517 -2.59624,-0.11923 -5.09294,0.48576 -7.55839,1.21417 -0.3808,0.10602 -0.76874,0.18912 -1.1424,0.31807 -0.31941,0.11024 -0.63027,0.24647 -0.93231,0.39794 -0.27593,0.13838 -1.06655,0.62208 -0.79803,0.46983 15.70066,-8.90254 10.28574,-6.90419 7.80188,-4.00678 -1.02636,1.32021 -1.21457,2.97125 -1.35604,4.58261 -0.0989,1.56866 -0.0808,3.14153 -0.0738,4.71239 -0.0153,1.21113 0.14573,2.45476 0.74744,3.51889 0.91391,1.0327 2.41742,1.0356 3.70065,1.13853 1.97409,0.0943 3.95178,0.0796 5.92765,0.0859 2.65725,0.0547 5.32035,-0.12153 7.96992,0.11089 3.89073,0.90215 7.53981,2.66186 11.09276,4.45318 2.03179,1.14171 4.13811,2.33214 5.39577,4.3509 0.7561,1.51168 0.72781,3.20039 0.7496,4.84802 0.16489,2.64233 -0.33411,4.80512 -1.41948,7.20392 -1.52006,2.74879 -3.42826,5.33478 -5.93993,7.26399 -0.72178,0.5544 -1.50321,1.02647 -2.25482,1.53971 -6.13746,3.54759 -12.0945,7.65146 -18.94366,9.67889 -1.94641,0.57617 -2.87277,0.68665 -4.85954,1.04348 -4.73112,0.68087 -9.52415,0.68198 -14.29381,0.71263 -3.41912,-10e-4 -6.83815,0.036 -10.25723,0.0377 -2.0165,0.13962 -3.97938,-0.0747 -5.96319,-0.3917 0,0 9.10631,-6.39815 9.10631,-6.39815 v 0 c 1.91496,0.30606 3.83026,0.35068 5.76886,0.32172 3.34564,0.0354 6.69078,0.12542 10.03693,0.10722 4.72291,-0.0286 9.47144,-0.0539 14.14195,-0.84557 2.44005,-0.50165 4.76923,-1.08566 7.09279,-2.00377 4.45445,-1.7601 4.3765,-2.42038 -4.15403,2.96688 -0.7781,0.49139 1.60292,-0.90457 2.40438,-1.35686 0.73122,-0.45855 1.4883,-0.87823 2.19366,-1.37564 2.48686,-1.75372 4.40228,-4.2001 5.96777,-6.77705 1.08841,-2.14016 1.70817,-4.24613 1.47458,-6.67296 -0.006,-1.44291 0.055,-2.94679 -0.49022,-4.30942 -1.07792,-1.83961 -3.07484,-2.90761 -4.8484,-3.97578 -3.44458,-1.80113 -7.03352,-3.59075 -10.947,-4.0151 -2.6447,-0.12931 -5.29519,-0.026 -7.94224,-0.0348 -2.02614,0.0149 -4.06039,0.0684 -6.07972,-0.13024 -1.64307,-0.2304 -3.29227,-0.54565 -4.31233,-1.98967 -0.70958,-1.22169 -1.00427,-2.63262 -0.98946,-4.04408 -0.006,-1.60039 -0.0211,-3.2019 0.0528,-4.80111 0.11212,-1.74733 0.24068,-3.57248 1.07127,-5.14711 3.05102,-4.63192 8.82824,-6.79383 14.0262,-8.29776 2.54078,-0.66956 5.13102,-1.08595 7.76924,-0.99662 1.93374,-0.002 3.86807,-0.008 5.80131,-0.0517 0,0 -9.07877,6.59611 -9.07877,6.59611 z"
       id="path5192"
       style="opacity:0.52899996;fill:#af4949;fill-opacity:1;fill-rule:evenodd;stroke:#000000;stroke-width:1;stroke-miterlimit:4;stroke-dasharray:none;stroke-opacity:0" />
  </g>
</svg>
